#!OML:ASF \\sashay\E\Suitcase\Project 1\Capture day 1\Session 1\Male1.ASF
:FULLY-SPECIFIED
:DEGREES
1357
root -1.93239 17.6316 9.76336 6.62315 -6.60664 0.55819
lowerback 8.36537 -3.6129 7.81955
upperback 1.14349 -3.86126 6.15858
thorax -3.58669 -1.9843 2.50158
lowerneck -7.41704 -1.54897 -14.4068
upperneck 16.2 -1.24685 6.67708
head 6.27676 -0.971233 4.43183
rclavicle 1.82882e-014 -2.38542e-014
rhumerus -28.9936 -22.4905 -63.5175
rradius 26.546
rwrist 3.8192
rhand -11.5218 24.247
rfingers 7.12502
rthumb 14.5178 -5.22504
lclavicle 1.82882e-014 -2.38542e-014
lhumerus -35.867 -9.83692 93.2104
lradius 44.0426
lwrist -0.0013672
lhand -0.770299 44.0543
lfingers 7.12502
lthumb 24.8524 72.459
rfemur -8.0332 4.34583 22.2437
rtibia 14.6288
rfoot -10.8884 -14.3331
rtoes 15.8114
lfemur -8.07537 -1.90807 -10.6966
ltibia 18.4708
lfoot -8.48447 7.46926
ltoes -6.74859
1358
root -1.92648 17.6376 9.75604 6.39535 -6.53024 0.907638
lowerback 8.53724 -3.59704 7.6798
upperback 1.24299 -3.83965 6.1822
thorax -3.56686 -1.97 2.60727
lowerneck -6.76657 -1.53663 -14.9684
upperneck 16.144 -1.28954 6.88526
head 6.15712 -1.01802 4.58821
rclavicle -6.04305e-014 0
rhumerus -28.5352 -22.4954 -63.4507
rradius 26.7043
rwrist 3.78141
rhand -11.7796 24.0875
rfingers 7.12502
rthumb 14.2693 -5.40222
lclavicle -6.04305e-014 0
lhumerus -35.6517 -9.70696 93.371
lradius 44.2998
lwrist -0.0802485
lhand -0.649798 43.9598
lfingers 7.12502
lthumb 24.9678 72.3485
rfemur -7.86393 3.93272 21.8547
rtibia 14.6664
rfoot -10.6259 -14.0381
rtoes 14.3253
lfemur -8.00411 -1.84115 -11.1224
ltibia 18.5998
lfoot -8.92304 7.28376
ltoes -8.03647
1359
root -1.93851 17.6342 9.74739 6.32563 -6.54878 0.973532
lowerback 8.56892 -3.59165 7.52594
upperback 1.37114 -3.85401 6.22716
thorax -3.4367 -1.97192 2.73597
lowerneck -6.16907 -1.43437 -14.996
upperneck 16.0792 -1.247 6.91804
head 6.02782 -1.0039 4.60496
rclavicle 5.56597e-015 2.8625e-014
rhumerus -28.3173 -22.635 -63.5202
rradius 26.862
rwrist 4.2182
rhand -11.7757 24.4783
rfingers 7.12502
rthumb 14.2731 -5.01121
lclavicle 5.56597e-015 2.8625e-014
lhumerus -35.5467 -9.63433 93.2757
lradius 44.6254
lwrist 0.113572
lhand -0.724823 44.126
lfingers 7.12502
lthumb 24.8959 72.5247
rfemur -7.8495 4.31451 21.8272
rtibia 14.7237
rfoot -10.8895 -14.3383
rtoes 15.6993
lfemur -7.99167 -1.83217 -11.1254
ltibia 18.6534
lfoot -8.17466 7.44613
ltoes -5.79373
1360
root -1.94171 17.6353 9.73212 6.27469 -6.45415 0.769682
lowerback 8.75655 -3.63134 7.77643
upperback 1.4505 -3.86255 6.3435
thorax -3.46605 -1.97763 2.73234
lowerneck -5.53598 -1.33484 -15.0963
upperneck 16.0181 -1.20754 6.96208
head 5.89514 -0.995522 4.63703
rclavicle -7.15625e-015 3.18055e-015
rhumerus -27.8757 -22.6245 -63.6181
rradius 26.9218
rwrist 4.30586
rhand -11.5952 24.792
rfingers 7.12502
rthumb 14.4471 -4.68515
lclavicle -7.15625e-015 3.18055e-015
lhumerus -35.3384 -9.46439 93.1681
lradius 44.9175
lwrist 0.198386
lhand -0.614634 44.083
lfingers 7.12502
lthumb 25.0015 72.4671
rfemur -7.85738 4.49123 22.0919
rtibia 14.7948
rfoot -10.7198 -14.6249
rtoes 14.7996
lfemur -8.0051 -1.55007 -10.8659
ltibia 18.6109
lfoot -8.29926 7.04842
ltoes -8.45719
1361
root -1.92681 17.641 9.71953 6.26064 -6.12431 1.15915
lowerback 8.75587 -3.65475 7.77847
upperback 1.51893 -3.89963 6.30575
thorax -3.39692 -1.99338 2.69244
lowerneck -4.96846 -1.3469 -15.3828
upperneck 15.9371 -1.29989 7.07579
head 5.78564 -1.05536 4.71369
rclavicle 3.89618e-014 -4.45278e-014
rhumerus -27.2682 -22.5584 -63.6788
rradius 26.9648
rwrist 4.00506
rhand -11.6738 24.5746
rfingers 7.12502
rthumb 14.3714 -4.90793
lclavicle 3.89618e-014 -4.45278e-014
lhumerus -35.1665 -9.605 93.3287
lradius 45.3483
lwrist 0.398581
lhand -0.93854 44.1144
lfingers 7.12502
lthumb 24.6911 72.5413
rfemur -7.90204 3.78597 21.6013
rtibia 14.8388
rfoot -10.9194 -14.2354
rtoes 15.7578
lfemur -8.11452 -1.79513 -11.3366
ltibia 18.61
lfoot -7.97832 7.01049
ltoes -6.87512
1362
root -1.92715 17.6448 9.71492 6.24217 -6.15128 1.29293
lowerback 8.63363 -3.71069 7.69153
upperback 1.68503 -4.01082 6.40713
thorax -3.14223 -2.04174 2.84256
lowerneck -4.30407 -1.16699 -15.7758
upperneck 15.7637 -1.13602 7.16829
head 5.60192 -0.997399 4.81525
rclavicle -5.00937e-014 8.11041e-014
rhumerus -26.6168 -22.1443 -63.8721
rradius 27.1081
rwrist 3.96104
rhand -11.6275 24.2863
rfingers 7.12502
rthumb 14.4159 -5.19301
lclavicle -5.00937e-014 8.11041e-014
lhumerus -35.034 -9.15981 93.2835
lradius 45.8365
lwrist 0.414603
lhand -0.176396 44.3799
lfingers 7.12502
lthumb 25.4214 72.7048
rfemur -7.90416 3.69772 21.4473
rtibia 14.8084
rfoot -10.605 -14.1649
rtoes 14.5469
lfemur -8.22986 -1.66545 -11.5103
ltibia 18.6965
lfoot -8.23627 6.94677
ltoes -8.90884
1363
root -1.92604 17.643 9.70466 6.11679 -6.11553 1.26983
lowerback 8.75217 -3.61008 7.88316
upperback 1.89377 -3.86604 6.35331
thorax -3.0033 -1.96619 2.66152
lowerneck -3.72463 -1.19482 -15.4916
upperneck 15.6342 -1.28991 7.13843
head 5.47644 -1.06259 4.74714
rclavicle 6.36111e-014 -1.06549e-013
rhumerus -26.4239 -22.6769 -63.8805
rradius 27.1382
rwrist 4.22638
rhand -11.8378 24.4218
rfingers 7.12502
rthumb 14.2133 -5.07186
lclavicle 6.36111e-014 -1.06549e-013
lhumerus -34.8271 -9.62053 93.2135
lradius 46.2534
lwrist 0.497581
lhand -0.994521 44.2483
lfingers 7.12502
lthumb 24.6375 72.6824
rfemur -7.8158 3.5509 21.4747
rtibia 14.8451
rfoot -10.8473 -14.0537
rtoes 15.1935
lfemur -8.13903 -1.67519 -11.4735
ltibia 18.751
lfoot -7.97203 7.11126
ltoes -6.81946
